<?xml version="1.0" encoding="UTF-8"?>
<!DOCTYPE svg
PUBLIC "-//W3C//DTD SVG 1.1//EN"
       "http://www.w3.org/Graphics/SVG/1.1/DTD/svg11.dtd">
<svg viewBox="38 -13 1094 716" width="1056px" height="729px" xmlns="http://www.w3.org/2000/svg" version="1.1">
   <line x1="53" y1="352" x2="43" y2="352" style="stroke:#0b0;stroke-width:1;"/>
   <line x1="101" y1="434" x2="111" y2="434" style="stroke:#0b0;stroke-width:1;"/>
   <line x1="43" y1="352" x2="101" y2="434" style="stroke:#0b0;stroke-width:1;"/>
   <line x1="45.5" y1="352" x2="49.035533905933" y2="355.53553390593" style="stroke:#0b0;stroke-width:2;"/>
   <line x1="45.5" y1="352" x2="49.035533905933" y2="348.46446609407" style="stroke:#0b0;stroke-width:2;"/>
   <line x1="106" y1="434" x2="102.46446609407" y2="437.53553390593" style="stroke:#0b0;stroke-width:2;"/>
   <line x1="106" y1="434" x2="102.46446609407" y2="430.46446609407" style="stroke:#0b0;stroke-width:2;"/>
   <line x1="235" y1="92" x2="245" y2="92" style="stroke:#c00;stroke-width:1;"/>
   <line x1="212" y1="272" x2="202" y2="272" style="stroke:#c00;stroke-width:1;"/>
   <line x1="245" y1="92" x2="212" y2="272" style="stroke:#c00;stroke-width:1;"/>
   <line x1="242.5" y1="92" x2="238.96446609407" y2="95.535533905933" style="stroke:#c00;stroke-width:2;"/>
   <line x1="242.5" y1="92" x2="238.96446609407" y2="88.464466094067" style="stroke:#c00;stroke-width:2;"/>
   <line x1="207" y1="272" x2="210.53553390593" y2="275.53553390593" style="stroke:#c00;stroke-width:2;"/>
   <line x1="207" y1="272" x2="210.53553390593" y2="268.46446609407" style="stroke:#c00;stroke-width:2;"/>
   <line x1="235" y1="52" x2="245" y2="52" style="stroke:#0bf;stroke-width:1;"/>
   <line x1="486" y1="32" x2="496" y2="32" style="stroke:#0bf;stroke-width:1;"/>
   <line x1="245" y1="52" x2="486" y2="32" style="stroke:#0bf;stroke-width:1;"/>
   <line x1="242.5" y1="52" x2="238.96446609407" y2="55.535533905933" style="stroke:#0bf;stroke-width:2;"/>
   <line x1="242.5" y1="52" x2="238.96446609407" y2="48.464466094067" style="stroke:#0bf;stroke-width:2;"/>
   <line x1="491" y1="32" x2="487.46446609407" y2="35.535533905933" style="stroke:#0bf;stroke-width:2;"/>
   <line x1="491" y1="32" x2="487.46446609407" y2="28.464466094067" style="stroke:#0bf;stroke-width:2;"/>
   <line x1="235" y1="112" x2="245" y2="112" style="stroke:#0b0;stroke-width:1;"/>
   <line x1="209" y1="175" x2="199" y2="175" style="stroke:#0b0;stroke-width:1;"/>
   <line x1="245" y1="112" x2="209" y2="175" style="stroke:#0b0;stroke-width:1;"/>
   <line x1="242.5" y1="112" x2="238.96446609407" y2="115.53553390593" style="stroke:#0b0;stroke-width:2;"/>
   <line x1="242.5" y1="112" x2="238.96446609407" y2="108.46446609407" style="stroke:#0b0;stroke-width:2;"/>
   <line x1="204" y1="175" x2="207.53553390593" y2="178.53553390593" style="stroke:#0b0;stroke-width:2;"/>
   <line x1="204" y1="175" x2="207.53553390593" y2="171.46446609407" style="stroke:#0b0;stroke-width:2;"/>
   <line x1="280" y1="474" x2="290" y2="474" style="stroke:#b0b;stroke-width:1;"/>
   <line x1="488" y1="466" x2="498" y2="466" style="stroke:#b0b;stroke-width:1;"/>
   <line x1="290" y1="474" x2="488" y2="466" style="stroke:#b0b;stroke-width:1;"/>
   <line x1="287.5" y1="474" x2="283.96446609407" y2="477.53553390593" style="stroke:#b0b;stroke-width:2;"/>
   <line x1="287.5" y1="474" x2="283.96446609407" y2="470.46446609407" style="stroke:#b0b;stroke-width:2;"/>
   <line x1="493" y1="466" x2="489.46446609407" y2="469.53553390593" style="stroke:#b0b;stroke-width:2;"/>
   <line x1="493" y1="466" x2="489.46446609407" y2="462.46446609407" style="stroke:#b0b;stroke-width:2;"/>
   <line x1="650" y1="212" x2="660" y2="212" style="stroke:#333;stroke-width:1;"/>
   <line x1="875" y1="33" x2="885" y2="33" style="stroke:#333;stroke-width:1;"/>
   <line x1="660" y1="212" x2="875" y2="33" style="stroke:#333;stroke-width:1;"/>
   <line x1="657.5" y1="212" x2="653.96446609407" y2="215.53553390593" style="stroke:#333;stroke-width:2;"/>
   <line x1="657.5" y1="212" x2="653.96446609407" y2="208.46446609407" style="stroke:#333;stroke-width:2;"/>
   <line x1="880" y1="33" x2="876.46446609407" y2="36.535533905933" style="stroke:#333;stroke-width:2;"/>
   <line x1="880" y1="33" x2="876.46446609407" y2="29.464466094067" style="stroke:#333;stroke-width:2;"/>
   <line x1="650" y1="352" x2="660" y2="352" style="stroke:#c00;stroke-width:1;"/>
   <line x1="910" y1="530" x2="920" y2="530" style="stroke:#c00;stroke-width:1;"/>
   <line x1="660" y1="352" x2="910" y2="530" style="stroke:#c00;stroke-width:1;"/>
   <line x1="657.5" y1="352" x2="653.96446609407" y2="355.53553390593" style="stroke:#c00;stroke-width:2;"/>
   <line x1="657.5" y1="352" x2="653.96446609407" y2="348.46446609407" style="stroke:#c00;stroke-width:2;"/>
   <line x1="915" y1="530" x2="911.46446609407" y2="533.53553390593" style="stroke:#c00;stroke-width:2;"/>
   <line x1="915" y1="530" x2="911.46446609407" y2="526.46446609407" style="stroke:#c00;stroke-width:2;"/>
   <line x1="496" y1="292" x2="486" y2="292" style="stroke:#0b0;stroke-width:1;"/>
   <line x1="462" y1="565" x2="472" y2="565" style="stroke:#0b0;stroke-width:1;"/>
   <line x1="486" y1="292" x2="462" y2="565" style="stroke:#0b0;stroke-width:1;"/>
   <line x1="488.5" y1="292" x2="492.03553390593" y2="295.53553390593" style="stroke:#0b0;stroke-width:2;"/>
   <line x1="488.5" y1="292" x2="492.03553390593" y2="288.46446609407" style="stroke:#0b0;stroke-width:2;"/>
   <line x1="467" y1="565" x2="463.46446609407" y2="568.53553390593" style="stroke:#0b0;stroke-width:2;"/>
   <line x1="467" y1="565" x2="463.46446609407" y2="561.46446609407" style="stroke:#0b0;stroke-width:2;"/>
   <line x1="650" y1="232" x2="660" y2="232" style="stroke:#0bf;stroke-width:1;"/>
   <line x1="934" y1="128" x2="944" y2="128" style="stroke:#0bf;stroke-width:1;"/>
   <line x1="660" y1="232" x2="934" y2="128" style="stroke:#0bf;stroke-width:1;"/>
   <line x1="657.5" y1="232" x2="653.96446609407" y2="235.53553390593" style="stroke:#0bf;stroke-width:2;"/>
   <line x1="657.5" y1="232" x2="653.96446609407" y2="228.46446609407" style="stroke:#0bf;stroke-width:2;"/>
   <line x1="939" y1="128" x2="935.46446609407" y2="131.53553390593" style="stroke:#0bf;stroke-width:2;"/>
   <line x1="939" y1="128" x2="935.46446609407" y2="124.46446609407" style="stroke:#0bf;stroke-width:2;"/>
   <line x1="650" y1="252" x2="660" y2="252" style="stroke:#0b0;stroke-width:1;"/>
   <line x1="934" y1="128" x2="944" y2="128" style="stroke:#0b0;stroke-width:1;"/>
   <line x1="660" y1="252" x2="934" y2="128" style="stroke:#0b0;stroke-width:1;"/>
   <line x1="657.5" y1="252" x2="653.96446609407" y2="255.53553390593" style="stroke:#0b0;stroke-width:2;"/>
   <line x1="657.5" y1="252" x2="653.96446609407" y2="248.46446609407" style="stroke:#0b0;stroke-width:2;"/>
   <line x1="939" y1="128" x2="935.46446609407" y2="131.53553390593" style="stroke:#0b0;stroke-width:2;"/>
   <line x1="939" y1="128" x2="935.46446609407" y2="124.46446609407" style="stroke:#0b0;stroke-width:2;"/>
   <line x1="650" y1="272" x2="660" y2="272" style="stroke:#c00;stroke-width:1;"/>
   <line x1="934" y1="128" x2="944" y2="128" style="stroke:#c00;stroke-width:1;"/>
   <line x1="660" y1="272" x2="934" y2="128" style="stroke:#c00;stroke-width:1;"/>
   <line x1="657.5" y1="272" x2="653.96446609407" y2="275.53553390593" style="stroke:#c00;stroke-width:2;"/>
   <line x1="657.5" y1="272" x2="653.96446609407" y2="268.46446609407" style="stroke:#c00;stroke-width:2;"/>
   <line x1="939" y1="128" x2="935.46446609407" y2="131.53553390593" style="stroke:#c00;stroke-width:2;"/>
   <line x1="939" y1="128" x2="935.46446609407" y2="124.46446609407" style="stroke:#c00;stroke-width:2;"/>
   <line x1="650" y1="312" x2="660" y2="312" style="stroke:#0bf;stroke-width:1;"/>
   <line x1="827" y1="624" x2="837" y2="624" style="stroke:#0bf;stroke-width:1;"/>
   <line x1="660" y1="312" x2="827" y2="624" style="stroke:#0bf;stroke-width:1;"/>
   <line x1="657.5" y1="312" x2="653.96446609407" y2="315.53553390593" style="stroke:#0bf;stroke-width:2;"/>
   <line x1="657.5" y1="312" x2="653.96446609407" y2="308.46446609407" style="stroke:#0bf;stroke-width:2;"/>
   <line x1="832" y1="624" x2="828.46446609407" y2="627.53553390593" style="stroke:#0bf;stroke-width:2;"/>
   <line x1="832" y1="624" x2="828.46446609407" y2="620.46446609407" style="stroke:#0bf;stroke-width:2;"/>
   <line x1="1019" y1="334" x2="1029" y2="334" style="stroke:#c00;stroke-width:1;"/>
   <line x1="1089" y1="128" x2="1079" y2="128" style="stroke:#c00;stroke-width:1;"/>
   <line x1="1029" y1="334" x2="1089" y2="128" style="stroke:#c00;stroke-width:1;"/>
   <line x1="1026.5" y1="334" x2="1022.9644660941" y2="337.53553390593" style="stroke:#c00;stroke-width:2;"/>
   <line x1="1026.5" y1="334" x2="1022.9644660941" y2="330.46446609407" style="stroke:#c00;stroke-width:2;"/>
   <line x1="1084" y1="128" x2="1087.5355339059" y2="131.53553390593" style="stroke:#c00;stroke-width:2;"/>
   <line x1="1084" y1="128" x2="1087.5355339059" y2="124.46446609407" style="stroke:#c00;stroke-width:2;"/>
   <line x1="472" y1="605" x2="462" y2="605" style="stroke:#0b0;stroke-width:1;"/>
   <line x1="263" y1="551" x2="253" y2="551" style="stroke:#0b0;stroke-width:1;"/>
   <line x1="462" y1="605" x2="263" y2="551" style="stroke:#0b0;stroke-width:1;"/>
   <line x1="464.5" y1="605" x2="468.03553390593" y2="608.53553390593" style="stroke:#0b0;stroke-width:2;"/>
   <line x1="464.5" y1="605" x2="468.03553390593" y2="601.46446609407" style="stroke:#0b0;stroke-width:2;"/>
   <line x1="258" y1="551" x2="261.53553390593" y2="554.53553390593" style="stroke:#0b0;stroke-width:2;"/>
   <line x1="258" y1="551" x2="261.53553390593" y2="547.46446609407" style="stroke:#0b0;stroke-width:2;"/>
   <line x1="837" y1="664" x2="827" y2="664" style="stroke:#0bf;stroke-width:1;"/>
   <line x1="625" y1="565" x2="615" y2="565" style="stroke:#0bf;stroke-width:1;"/>
   <line x1="827" y1="664" x2="625" y2="565" style="stroke:#0bf;stroke-width:1;"/>
   <line x1="829.5" y1="664" x2="833.03553390593" y2="667.53553390593" style="stroke:#0bf;stroke-width:2;"/>
   <line x1="829.5" y1="664" x2="833.03553390593" y2="660.46446609407" style="stroke:#0bf;stroke-width:2;"/>
   <line x1="620" y1="565" x2="623.53553390593" y2="568.53553390593" style="stroke:#0bf;stroke-width:2;"/>
   <line x1="620" y1="565" x2="623.53553390593" y2="561.46446609407" style="stroke:#0bf;stroke-width:2;"/>
   <line x1="944" y1="208" x2="934" y2="208" style="stroke:#0bf;stroke-width:1;"/>
   <line x1="910" y1="455" x2="920" y2="455" style="stroke:#0bf;stroke-width:1;"/>
   <line x1="934" y1="208" x2="910" y2="455" style="stroke:#0bf;stroke-width:1;"/>
   <line x1="936.5" y1="208" x2="940.03553390593" y2="211.53553390593" style="stroke:#0bf;stroke-width:2;"/>
   <line x1="936.5" y1="208" x2="940.03553390593" y2="204.46446609407" style="stroke:#0bf;stroke-width:2;"/>
   <line x1="915" y1="455" x2="911.46446609407" y2="458.53553390593" style="stroke:#0bf;stroke-width:2;"/>
   <line x1="915" y1="455" x2="911.46446609407" y2="451.46446609407" style="stroke:#0bf;stroke-width:2;"/>
   <rect width="141" height="20" x="498" y="436" style="fill:#007;stroke:black;"/>
   <text width="141" height="20" x="503" y="450" style="fill:#fff;" font-family="Arial" font-size="16px"> Cliente</text>
   <rect width="141" height="20" x="498" y="456" style="fill:#aea;stroke:black;"/>
   <text width="141" height="20" x="503" y="470" style="fill:black;" font-family="Arial" font-size="16px">id_cliente</text>
   <rect width="141" height="20" x="498" y="476" style="fill:none;stroke:black;"/>
   <text width="141" height="20" x="503" y="490" style="fill:black;" font-family="Arial" font-size="16px">descripcionCliente</text>
   <rect width="141" height="20" x="498" y="496" style="fill:none;stroke:black;"/>
   <text width="141" height="20" x="503" y="510" style="fill:black;" font-family="Arial" font-size="16px">estatus</text>
   <rect width="149" height="20" x="53" y="242" style="fill:#007;stroke:black;"/>
   <text width="149" height="20" x="58" y="256" style="fill:#fff;" font-family="Arial" font-size="16px"> DescripcionMaterial</text>
   <rect width="149" height="20" x="53" y="262" style="fill:#aea;stroke:black;"/>
   <text width="149" height="20" x="58" y="276" style="fill:black;" font-family="Arial" font-size="16px">id_descripcion</text>
   <rect width="149" height="20" x="53" y="282" style="fill:none;stroke:black;"/>
   <text width="149" height="20" x="58" y="296" style="fill:black;" font-family="Arial" font-size="16px">numeroDeParte</text>
   <rect width="149" height="20" x="53" y="302" style="fill:none;stroke:black;"/>
   <text width="149" height="20" x="58" y="316" style="fill:black;" font-family="Arial" font-size="16px">descripcionMaterial</text>
   <rect width="149" height="20" x="53" y="322" style="fill:none;stroke:black;"/>
   <text width="149" height="20" x="58" y="336" style="fill:black;" font-family="Arial" font-size="16px">imgMaterial</text>
   <rect width="149" height="20" x="53" y="342" style="fill:none;stroke:black;"/>
   <text width="149" height="20" x="58" y="356" style="fill:black;" font-family="Arial" font-size="16px">id_plataforma</text>
   <rect width="149" height="20" x="53" y="362" style="fill:none;stroke:black;"/>
   <text width="149" height="20" x="58" y="376" style="fill:black;" font-family="Arial" font-size="16px">estatus</text>
   <rect width="145" height="20" x="54" y="145" style="fill:#007;stroke:black;"/>
   <text width="145" height="20" x="59" y="159" style="fill:#fff;" font-family="Arial" font-size="16px"> EstatusMaterial</text>
   <rect width="145" height="20" x="54" y="165" style="fill:#aea;stroke:black;"/>
   <text width="145" height="20" x="59" y="179" style="fill:black;" font-family="Arial" font-size="16px">id_estatusMaterial</text>
   <rect width="145" height="20" x="54" y="185" style="fill:none;stroke:black;"/>
   <text width="145" height="20" x="59" y="199" style="fill:black;" font-family="Arial" font-size="16px">descripcionEstatus</text>
   <rect width="145" height="20" x="54" y="205" style="fill:none;stroke:black;"/>
   <text width="145" height="20" x="59" y="219" style="fill:black;" font-family="Arial" font-size="16px">detallesEstatus</text>
   <rect width="145" height="20" x="885" y="3" style="fill:#007;stroke:black;"/>
   <text width="145" height="20" x="890" y="17" style="fill:#fff;" font-family="Arial" font-size="16px"> EstatusPrueba</text>
   <rect width="145" height="20" x="885" y="23" style="fill:#aea;stroke:black;"/>
   <text width="145" height="20" x="890" y="37" style="fill:black;" font-family="Arial" font-size="16px">id_estatusPrueba</text>
   <rect width="145" height="20" x="885" y="43" style="fill:none;stroke:black;"/>
   <text width="145" height="20" x="890" y="57" style="fill:black;" font-family="Arial" font-size="16px">descripcionEstatus</text>
   <rect width="145" height="20" x="885" y="63" style="fill:none;stroke:black;"/>
   <text width="145" height="20" x="890" y="77" style="fill:black;" font-family="Arial" font-size="16px">detallesEstatus</text>
   <rect width="136" height="20" x="99" y="2" style="fill:#007;stroke:black;"/>
   <text width="136" height="20" x="104" y="16" style="fill:#fff;" font-family="Arial" font-size="16px"> Material</text>
   <rect width="136" height="20" x="99" y="22" style="fill:#aea;stroke:black;"/>
   <text width="136" height="20" x="104" y="36" style="fill:black;" font-family="Arial" font-size="16px">id_material</text>
   <rect width="136" height="20" x="99" y="42" style="fill:none;stroke:black;"/>
   <text width="136" height="20" x="104" y="56" style="fill:black;" font-family="Arial" font-size="16px">id_prueba</text>
   <rect width="136" height="20" x="99" y="62" style="fill:none;stroke:black;"/>
   <text width="136" height="20" x="104" y="76" style="fill:black;" font-family="Arial" font-size="16px">cantidad</text>
   <rect width="136" height="20" x="99" y="82" style="fill:none;stroke:black;"/>
   <text width="136" height="20" x="104" y="96" style="fill:black;" font-family="Arial" font-size="16px">id_descripcion</text>
   <rect width="136" height="20" x="99" y="102" style="fill:none;stroke:black;"/>
   <text width="136" height="20" x="104" y="116" style="fill:black;" font-family="Arial" font-size="16px">id_estatusMaterial</text>
   <rect width="109" height="20" x="99" y="601" style="fill:#007;stroke:black;"/>
   <text width="109" height="20" x="104" y="615" style="fill:#fff;" font-family="Arial" font-size="16px"> MaterialTest</text>
   <rect width="109" height="20" x="99" y="621" style="fill:#aea;stroke:black;"/>
   <text width="109" height="20" x="104" y="635" style="fill:black;" font-family="Arial" font-size="16px">id_material</text>
   <rect width="109" height="20" x="99" y="641" style="fill:none;stroke:black;"/>
   <text width="109" height="20" x="104" y="655" style="fill:black;" font-family="Arial" font-size="16px">id_prueba</text>
   <rect width="109" height="20" x="99" y="661" style="fill:none;stroke:black;"/>
   <text width="109" height="20" x="104" y="675" style="fill:black;" font-family="Arial" font-size="16px">cantidad</text>
   <rect width="109" height="20" x="99" y="681" style="fill:none;stroke:black;"/>
   <text width="109" height="20" x="104" y="695" style="fill:black;" font-family="Arial" font-size="16px">id_descripcion</text>
   <rect width="169" height="20" x="111" y="404" style="fill:#007;stroke:black;"/>
   <text width="169" height="20" x="116" y="418" style="fill:#fff;" font-family="Arial" font-size="16px"> Plataforma</text>
   <rect width="169" height="20" x="111" y="424" style="fill:#aea;stroke:black;"/>
   <text width="169" height="20" x="116" y="438" style="fill:black;" font-family="Arial" font-size="16px">id_plataforma</text>
   <rect width="169" height="20" x="111" y="444" style="fill:none;stroke:black;"/>
   <text width="169" height="20" x="116" y="458" style="fill:black;" font-family="Arial" font-size="16px">descripcionPlataforma</text>
   <rect width="169" height="20" x="111" y="464" style="fill:none;stroke:black;"/>
   <text width="169" height="20" x="116" y="478" style="fill:black;" font-family="Arial" font-size="16px">id_cliente</text>
   <rect width="169" height="20" x="111" y="484" style="fill:none;stroke:black;"/>
   <text width="169" height="20" x="116" y="498" style="fill:black;" font-family="Arial" font-size="16px">estatus</text>
   <rect width="156" height="20" x="920" y="500" style="fill:#007;stroke:black;"/>
   <text width="156" height="20" x="925" y="514" style="fill:#fff;" font-family="Arial" font-size="16px"> Prioridad</text>
   <rect width="156" height="20" x="920" y="520" style="fill:#aea;stroke:black;"/>
   <text width="156" height="20" x="925" y="534" style="fill:black;" font-family="Arial" font-size="16px">id_prioridad</text>
   <rect width="156" height="20" x="920" y="540" style="fill:none;stroke:black;"/>
   <text width="156" height="20" x="925" y="554" style="fill:black;" font-family="Arial" font-size="16px">descripcionPrioridad</text>
   <rect width="156" height="20" x="920" y="560" style="fill:none;stroke:black;"/>
   <text width="156" height="20" x="925" y="574" style="fill:black;" font-family="Arial" font-size="16px">detallesEstatus</text>
   <rect width="154" height="20" x="496" y="2" style="fill:#007;stroke:black;"/>
   <text width="154" height="20" x="501" y="16" style="fill:#fff;" font-family="Arial" font-size="16px"> Prueba</text>
   <rect width="154" height="20" x="496" y="22" style="fill:none;stroke:black;"/>
   <text width="154" height="20" x="501" y="36" style="fill:black;" font-family="Arial" font-size="16px">id_prueba</text>
   <rect width="154" height="20" x="496" y="42" style="fill:none;stroke:black;"/>
   <text width="154" height="20" x="501" y="56" style="fill:black;" font-family="Arial" font-size="16px">fechaSolicitud</text>
   <rect width="154" height="20" x="496" y="62" style="fill:none;stroke:black;"/>
   <text width="154" height="20" x="501" y="76" style="fill:black;" font-family="Arial" font-size="16px">fechaActualizacion</text>
   <rect width="154" height="20" x="496" y="82" style="fill:none;stroke:black;"/>
   <text width="154" height="20" x="501" y="96" style="fill:black;" font-family="Arial" font-size="16px">fechaCompromiso</text>
   <rect width="154" height="20" x="496" y="102" style="fill:none;stroke:black;"/>
   <text width="154" height="20" x="501" y="116" style="fill:black;" font-family="Arial" font-size="16px">fechaRespuesta</text>
   <rect width="154" height="20" x="496" y="122" style="fill:none;stroke:black;"/>
   <text width="154" height="20" x="501" y="136" style="fill:black;" font-family="Arial" font-size="16px">especificaciones</text>
   <rect width="154" height="20" x="496" y="142" style="fill:none;stroke:black;"/>
   <text width="154" height="20" x="501" y="156" style="fill:black;" font-family="Arial" font-size="16px">especificacionesLab</text>
   <rect width="154" height="20" x="496" y="162" style="fill:none;stroke:black;"/>
   <text width="154" height="20" x="501" y="176" style="fill:black;" font-family="Arial" font-size="16px">normaNombre</text>
   <rect width="154" height="20" x="496" y="182" style="fill:none;stroke:black;"/>
   <text width="154" height="20" x="501" y="196" style="fill:black;" font-family="Arial" font-size="16px">normaArchivo</text>
   <rect width="154" height="20" x="496" y="202" style="fill:none;stroke:black;"/>
   <text width="154" height="20" x="501" y="216" style="fill:black;" font-family="Arial" font-size="16px">id_estatusPrueba</text>
   <rect width="154" height="20" x="496" y="222" style="fill:none;stroke:black;"/>
   <text width="154" height="20" x="501" y="236" style="fill:black;" font-family="Arial" font-size="16px">id_administrador</text>
   <rect width="154" height="20" x="496" y="242" style="fill:none;stroke:black;"/>
   <text width="154" height="20" x="501" y="256" style="fill:black;" font-family="Arial" font-size="16px">id_solicitante</text>
   <rect width="154" height="20" x="496" y="262" style="fill:none;stroke:black;"/>
   <text width="154" height="20" x="501" y="276" style="fill:black;" font-family="Arial" font-size="16px">id_metrologo</text>
   <rect width="154" height="20" x="496" y="282" style="fill:none;stroke:black;"/>
   <text width="154" height="20" x="501" y="296" style="fill:black;" font-family="Arial" font-size="16px">id_tipoPrueba</text>
   <rect width="154" height="20" x="496" y="302" style="fill:none;stroke:black;"/>
   <text width="154" height="20" x="501" y="316" style="fill:black;" font-family="Arial" font-size="16px">id_pruebaEspecial</text>
   <rect width="154" height="20" x="496" y="322" style="fill:none;stroke:black;"/>
   <text width="154" height="20" x="501" y="336" style="fill:black;" font-family="Arial" font-size="16px">otroTipoEspecial</text>
   <rect width="154" height="20" x="496" y="342" style="fill:none;stroke:black;"/>
   <text width="154" height="20" x="501" y="356" style="fill:black;" font-family="Arial" font-size="16px">id_prioridad</text>
   <rect width="154" height="20" x="496" y="362" style="fill:none;stroke:black;"/>
   <text width="154" height="20" x="501" y="376" style="fill:black;" font-family="Arial" font-size="16px">rutaResultados</text>
   <rect width="164" height="20" x="855" y="284" style="fill:#007;stroke:black;"/>
   <text width="164" height="20" x="860" y="298" style="fill:#fff;" font-family="Arial" font-size="16px"> restablecer_password</text>
   <rect width="164" height="20" x="855" y="304" style="fill:#aea;stroke:black;"/>
   <text width="164" height="20" x="860" y="318" style="fill:black;" font-family="Arial" font-size="16px">id</text>
   <rect width="164" height="20" x="855" y="324" style="fill:none;stroke:black;"/>
   <text width="164" height="20" x="860" y="338" style="fill:black;" font-family="Arial" font-size="16px">id_usuario</text>
   <rect width="164" height="20" x="855" y="344" style="fill:none;stroke:black;"/>
   <text width="164" height="20" x="860" y="358" style="fill:black;" font-family="Arial" font-size="16px">token</text>
   <rect width="164" height="20" x="855" y="364" style="fill:none;stroke:black;"/>
   <text width="164" height="20" x="860" y="378" style="fill:black;" font-family="Arial" font-size="16px">expira</text>
   <rect width="164" height="20" x="855" y="384" style="fill:none;stroke:black;"/>
   <text width="164" height="20" x="860" y="398" style="fill:black;" font-family="Arial" font-size="16px">tokenValido</text>
   <rect width="170" height="20" x="83" y="521" style="fill:#007;stroke:black;"/>
   <text width="170" height="20" x="88" y="535" style="fill:#fff;" font-family="Arial" font-size="16px"> TipoEvaluacion</text>
   <rect width="170" height="20" x="83" y="541" style="fill:#aea;stroke:black;"/>
   <text width="170" height="20" x="88" y="555" style="fill:black;" font-family="Arial" font-size="16px">id_tipoEvaluacion</text>
   <rect width="170" height="20" x="83" y="561" style="fill:none;stroke:black;"/>
   <text width="170" height="20" x="88" y="575" style="fill:black;" font-family="Arial" font-size="16px">descripcionEvaluacion</text>
   <rect width="143" height="20" x="472" y="535" style="fill:#007;stroke:black;"/>
   <text width="143" height="20" x="477" y="549" style="fill:#fff;" font-family="Arial" font-size="16px"> TipoPrueba</text>
   <rect width="143" height="20" x="472" y="555" style="fill:#aea;stroke:black;"/>
   <text width="143" height="20" x="477" y="569" style="fill:black;" font-family="Arial" font-size="16px">id_tipoPrueba</text>
   <rect width="143" height="20" x="472" y="575" style="fill:none;stroke:black;"/>
   <text width="143" height="20" x="477" y="589" style="fill:black;" font-family="Arial" font-size="16px">descripcionPrueba</text>
   <rect width="143" height="20" x="472" y="595" style="fill:none;stroke:black;"/>
   <text width="143" height="20" x="477" y="609" style="fill:black;" font-family="Arial" font-size="16px">id_tipoEvaluacion</text>
   <rect width="152" height="20" x="837" y="594" style="fill:#007;stroke:black;"/>
   <text width="152" height="20" x="842" y="608" style="fill:#fff;" font-family="Arial" font-size="16px"> TipoPruebaEspecial</text>
   <rect width="152" height="20" x="837" y="614" style="fill:#aea;stroke:black;"/>
   <text width="152" height="20" x="842" y="628" style="fill:black;" font-family="Arial" font-size="16px">id_pruebaEspecial</text>
   <rect width="152" height="20" x="837" y="634" style="fill:none;stroke:black;"/>
   <text width="152" height="20" x="842" y="648" style="fill:black;" font-family="Arial" font-size="16px">descripcionEspecial</text>
   <rect width="152" height="20" x="837" y="654" style="fill:none;stroke:black;"/>
   <text width="152" height="20" x="842" y="668" style="fill:black;" font-family="Arial" font-size="16px">id_tipoPrueba</text>
   <rect width="122" height="20" x="920" y="425" style="fill:#007;stroke:black;"/>
   <text width="122" height="20" x="925" y="439" style="fill:#fff;" font-family="Arial" font-size="16px"> TipoUsuario</text>
   <rect width="122" height="20" x="920" y="445" style="fill:#aea;stroke:black;"/>
   <text width="122" height="20" x="925" y="459" style="fill:black;" font-family="Arial" font-size="16px">id_tipoUsuario</text>
   <rect width="122" height="20" x="920" y="465" style="fill:none;stroke:black;"/>
   <text width="122" height="20" x="925" y="479" style="fill:black;" font-family="Arial" font-size="16px">descripcionTipo</text>
   <rect width="135" height="20" x="944" y="98" style="fill:#007;stroke:black;"/>
   <text width="135" height="20" x="949" y="112" style="fill:#fff;" font-family="Arial" font-size="16px"> Usuario</text>
   <rect width="135" height="20" x="944" y="118" style="fill:none;stroke:black;"/>
   <text width="135" height="20" x="949" y="132" style="fill:black;" font-family="Arial" font-size="16px">id_usuario</text>
   <rect width="135" height="20" x="944" y="138" style="fill:none;stroke:black;"/>
   <text width="135" height="20" x="949" y="152" style="fill:black;" font-family="Arial" font-size="16px">nombreUsuario</text>
   <rect width="135" height="20" x="944" y="158" style="fill:none;stroke:black;"/>
   <text width="135" height="20" x="949" y="172" style="fill:black;" font-family="Arial" font-size="16px">correoElectronico</text>
   <rect width="135" height="20" x="944" y="178" style="fill:none;stroke:black;"/>
   <text width="135" height="20" x="949" y="192" style="fill:black;" font-family="Arial" font-size="16px">passwordHash</text>
   <rect width="135" height="20" x="944" y="198" style="fill:none;stroke:black;"/>
   <text width="135" height="20" x="949" y="212" style="fill:black;" font-family="Arial" font-size="16px">id_tipoUsuario</text>
   <rect width="135" height="20" x="944" y="218" style="fill:none;stroke:black;"/>
   <text width="135" height="20" x="949" y="232" style="fill:black;" font-family="Arial" font-size="16px">foto</text>
   <rect width="135" height="20" x="944" y="238" style="fill:none;stroke:black;"/>
   <text width="135" height="20" x="949" y="252" style="fill:black;" font-family="Arial" font-size="16px">estatus</text>
</svg>
